<?xml version="1.0" encoding="UTF-8"?>
<svg xmlns="http://www.w3.org/2000/svg" xmlns:xlink="http://www.w3.org/1999/xlink" width="375pt" height="149.999998pt" viewBox="0 0 375 149.999998" version="1.2">
<g id="surface1">
<path style=" stroke:none;fill-rule:nonzero;fill:rgb(92.939758%,92.158508%,90.19928%);fill-opacity:1;" d="M 176.601562 141.96875 C 178.605469 143.5 180.117188 143.105469 179.882812 146.308594 C 182.199219 145.527344 180.085938 143.101562 181.863281 142.050781 C 182.175781 142.523438 182.488281 142.933594 182.824219 142.414062 C 181.070312 140.335938 176.8125 141.195312 176.601562 141.96875 Z M 253.382812 139.839844 C 259.222656 140.089844 268.304688 144.714844 272.21875 143.476562 C 266.320312 142.574219 257.164062 136.089844 253.382812 139.839844 Z M 72.894531 142.601562 C 75.519531 142.582031 81.449219 145.523438 80.539062 140.878906 C 78.34375 141.710938 73.144531 139.800781 72.894531 142.601562 Z M -17.238281 144.703125 C -15.882812 143.929688 -14.378906 146.667969 -13.074219 144.925781 C -12.355469 143.550781 -12.425781 141.90625 -13.289062 139.996094 C -15.238281 141.148438 -16.855469 141.800781 -17.238281 144.703125 Z M 299.636719 146 C 304.902344 147.980469 315.675781 149.976562 316.976562 147.390625 C 311.246094 147.132812 305.199219 143.265625 299.636719 146 Z M -35.160156 106.480469 C -34.359375 108.5625 -34.53125 110.304688 -32.234375 112.90625 C -31.039062 112.972656 -29.878906 111.875 -28.527344 114.804688 C -27.242188 114.046875 -26.792969 113.007812 -27.660156 111.503906 C -28.890625 113.707031 -30.335938 109.644531 -30.398438 108.753906 C -31.53125 109.355469 -30.609375 110.671875 -30.757812 111.625 C -32.902344 109.660156 -34.289062 106.894531 -35.160156 106.480469 Z M -33.660156 92.75 C -32.976562 92.285156 -32.589844 92.769531 -32.3125 93.460938 C -32.449219 93.695312 -32.566406 93.941406 -32.738281 94.167969 C -32.4375 94.378906 -32.132812 94.679688 -31.824219 95 C -31.667969 95.445312 -31.507812 95.699219 -31.265625 95.597656 C -29.929688 97.140625 -28.570312 99.011719 -27.34375 98.445312 C -30.074219 95.074219 -29.851562 89.632812 -32.03125 88.445312 C -31.550781 89.914062 -31.511719 91.21875 -31.859375 92.398438 C -32.53125 90.316406 -33.425781 88.113281 -33.929688 88.027344 C -33.402344 89.761719 -34.78125 90.808594 -33.660156 92.75 Z M -30.375 118.964844 C -28.964844 120.671875 -28.402344 122.066406 -29.132812 123.007812 C -30.246094 121.746094 -30.542969 117.363281 -32.414062 119.453125 C -30.167969 120.445312 -29.78125 125.429688 -26.902344 126.203125 C -28.78125 123.90625 -26.808594 119.867188 -30.375 118.964844 Z M -19.851562 132.882812 C -18.492188 132.828125 -16.066406 133.890625 -18.855469 132.015625 C -16.457031 129.316406 -15.765625 132.589844 -14.011719 135.507812 C -11.714844 133.90625 -16.472656 130.8125 -17.410156 129.5 C -18.242188 130.304688 -19.089844 130.664062 -19.964844 130.425781 C -17.164062 133.601562 -21.402344 130.640625 -19.851562 132.882812 Z M -16.242188 137.210938 C -17.613281 136.6875 -18.878906 138.265625 -20.160156 139.363281 C -17.980469 142.023438 -14.351562 140.972656 -16.242188 137.210938 Z M 391.992188 110.429688 C 391.316406 109.398438 391.859375 108.78125 390.8125 107.621094 C 389.363281 108.355469 386.847656 109.351562 386.332031 110.210938 C 388.203125 109.976562 390.175781 111.515625 391.992188 110.429688 Z M 389.125 114.199219 C 390.453125 113.480469 391.828125 113.40625 393.183594 113.261719 C 391.929688 110.035156 388.386719 112.097656 389.125 114.199219 Z M 384.09375 107.023438 C 385.960938 107.214844 388.460938 107.183594 387.539062 104.054688 C 386.714844 105.8125 383.140625 103.96875 384.09375 107.023438 Z M 16.371094 135.050781 C 17.992188 138.945312 22.140625 139.324219 21.730469 136.882812 C 19.988281 137.234375 18.019531 132.90625 16.371094 135.050781 Z M 345.472656 139.902344 C 345.941406 139.988281 345.796875 138.765625 345.410156 137.925781 C 345.195312 137.894531 344.972656 137.890625 344.753906 137.886719 C 344.527344 137.386719 344.257812 136.910156 343.960938 136.527344 C 343.730469 137.011719 343.410156 137.46875 343.125 137.925781 C 340.707031 138.246094 338.460938 139.441406 337.148438 140.015625 C 337.96875 141.066406 338.179688 141.914062 338.390625 142.773438 C 340.144531 142.769531 341.796875 141.359375 343.667969 143.28125 C 345.496094 142.585938 343.40625 140.605469 344.730469 139.757812 C 344.867188 140.15625 344.988281 140.476562 345.097656 140.742188 C 343.839844 142.167969 346.554688 145.53125 347.871094 143.472656 C 346.957031 142.234375 346.5 141.613281 345.589844 140.371094 C 345.550781 140.21875 345.515625 140.066406 345.472656 139.902344 Z M 394.429688 117.296875 C 393.648438 117.976562 393.253906 118.316406 392.46875 118.996094 C 394.214844 122.394531 396.960938 120.042969 394.429688 117.296875 Z M 356.910156 141.433594 C 357.214844 141.917969 357.480469 142.386719 356.980469 142.601562 C 357.445312 140.828125 352.59375 140.367188 353.34375 140.785156 C 355.304688 142.371094 357.328125 145.449219 359.035156 143.316406 C 358.316406 142.472656 357.5625 141.074219 356.910156 141.433594 Z M 385.535156 130.324219 C 385.203125 129.738281 384.878906 129.28125 384.554688 128.859375 C 385.464844 123.78125 383.9375 117.363281 380.230469 111.652344 C 382.109375 110.132812 382.441406 114.722656 383.4375 113.976562 C 381 109.121094 386.0625 106.914062 380.675781 101.027344 C 381.96875 99.285156 380.984375 96.738281 382.949219 95.242188 C 384.882812 95.917969 386.742188 95.464844 388.816406 99.128906 C 390.777344 97.589844 384.617188 88.917969 389.492188 92.175781 C 388.996094 92.796875 387.992188 93.230469 388.566406 94.242188 C 390.550781 94.917969 389.867188 93.257812 391.035156 92.121094 C 389.371094 89.753906 387.863281 90.507812 386.214844 88.601562 C 384.605469 90.222656 386.316406 93.046875 384.984375 94.757812 C 381.492188 94.988281 379.5625 91.007812 377.503906 86.789062 C 377.875 85.742188 377.929688 84.582031 377.070312 83.089844 C 376.972656 83.929688 376.769531 84.433594 376.523438 84.808594 C 375.609375 83.015625 374.632812 81.296875 373.449219 79.972656 C 375.253906 80.09375 376.800781 79.933594 377.769531 79.203125 C 373.773438 77.464844 371.628906 75.132812 367.085938 74.0625 C 370.386719 73.726562 373.859375 75 376.953125 74.0625 C 373.941406 71.285156 376.761719 69.199219 376.25 66.871094 C 378.777344 66.972656 380.867188 65.492188 381.890625 62.777344 C 384.511719 65.753906 387.097656 61.972656 388.308594 64.175781 C 386.21875 57.921875 379.855469 62.589844 375.570312 59.882812 C 375.515625 59.867188 375.195312 59.648438 375.195312 59.648438 C 375.195312 59.648438 375.449219 59.800781 375.570312 59.882812 C 375.902344 59.964844 374.359375 58.285156 373.828125 58.152344 C 375.808594 56.734375 383.25 56.308594 385.351562 58.140625 C 388.132812 55.410156 393.960938 57.742188 394.015625 52.570312 C 391.394531 50.757812 389.085938 52.972656 386.46875 50.535156 C 388.289062 51.164062 388.710938 47.832031 389.585938 48.585938 C 390.328125 49.691406 389.207031 50.644531 391.101562 50.738281 C 391.9375 49.242188 392.9375 50.320312 393.832031 49.167969 C 392.039062 46.164062 393.867188 43.367188 392.203125 40.488281 C 389.082031 41.03125 389.976562 41.765625 388 44.027344 C 386.230469 41.945312 384.542969 42.335938 382.828125 41.820312 C 383.515625 40.371094 382.410156 38.867188 380.449219 37.320312 C 377.800781 38.71875 377.574219 37.773438 376.714844 35.578125 C 375.722656 36.203125 376.21875 36.898438 375.332031 37.515625 C 374.339844 36.5 371.019531 37.460938 371.574219 35.722656 C 373.609375 36.453125 375.640625 33.792969 377.660156 34.019531 C 374.394531 31.835938 373.941406 36.691406 370.632812 34.070312 C 371.414062 33.636719 372.203125 34.148438 372.984375 33.800781 C 368.902344 31.75 367.65625 31.324219 361.609375 28.167969 C 361.402344 29.308594 357.042969 30.816406 355.207031 29.609375 C 356.035156 29.269531 356.855469 29.585938 357.6875 28.628906 C 356.058594 26.78125 354.390625 29.519531 352.726562 28.101562 C 349.3125 24.730469 348.9375 22.625 346.25 18.261719 C 344.480469 19.128906 341.113281 19.664062 341.027344 16.503906 C 340.652344 18.921875 338.359375 18.628906 337.75 20.410156 C 338.386719 20.25 341.53125 20.316406 340.40625 21.296875 C 337.101562 23.007812 333.796875 20.644531 330.40625 19.875 C 330.273438 19.679688 330.140625 19.472656 330.015625 19.273438 C 331.589844 19.128906 333.9375 20.199219 333.4375 18.722656 C 332.1875 17.914062 330.90625 18.78125 329.632812 18.648438 C 329.335938 18.140625 329.054688 17.617188 328.792969 17.089844 C 329.042969 15.84375 329.203125 14.566406 331.324219 13.695312 C 333.648438 14.355469 335.996094 16.03125 339.441406 15.769531 C 338.539062 14.683594 338.039062 13.660156 338.425781 12.796875 C 340.566406 13.613281 342.691406 13.375 344.8125 12.09375 C 340.757812 9.300781 335.046875 16.515625 332.480469 10.128906 C 329.816406 10.980469 327.394531 10.777344 325.886719 12.035156 C 324.378906 12.382812 322.855469 12.382812 321.269531 11.667969 C 322.59375 11.871094 323.902344 12.011719 325.21875 11.835938 C 322.792969 10.226562 317.308594 9.207031 316.683594 11.183594 C 317.933594 11.15625 319.167969 11.351562 320.40625 11.546875 C 320.734375 12.316406 319.953125 12.609375 319.222656 12.738281 C 315.925781 11.800781 312.703125 11.113281 312.597656 13.566406 C 313.46875 12.609375 317.113281 13.535156 316.0625 14.441406 C 315.25 14.804688 314.429688 14.996094 313.585938 15.101562 C 313.550781 14.769531 313.480469 14.4375 313.300781 14.082031 C 312.941406 14.28125 312.730469 14.496094 312.570312 14.71875 C 311.441406 14.253906 310.304688 13.738281 309.171875 13.328125 C 310.074219 10.832031 308.917969 7.898438 311.070312 5.574219 C 313.703125 6.648438 316.347656 7.96875 318.855469 7.65625 C 314.910156 3.058594 313.5625 6.527344 311.839844 2.394531 C 309.234375 5.039062 305.796875 6.179688 302.53125 6.671875 C 302.523438 6.664062 302.519531 6.65625 302.5 6.636719 C 302.503906 6.664062 302.492188 6.671875 302.484375 6.683594 C 301.902344 6.773438 301.335938 6.832031 300.777344 6.890625 C 300.039062 6.78125 299.417969 6.753906 298.914062 6.847656 C 298.828125 6.804688 298.835938 6.816406 298.902344 6.847656 C 298.707031 6.878906 298.539062 6.933594 298.390625 7.011719 C 297.5 7.03125 296.640625 7.027344 295.890625 7 C 296.679688 7.339844 299.929688 7.554688 299.101562 8.734375 C 296.851562 8.59375 294.042969 8.445312 294.761719 11.738281 C 292.980469 10.441406 291.164062 10.277344 289.332031 10.628906 C 289.210938 10.457031 289.105469 10.328125 288.976562 10.09375 C 288.515625 10.480469 288.042969 10.800781 287.574219 11.109375 C 286.785156 11.394531 285.992188 11.714844 285.207031 12.085938 C 284.679688 11.59375 283.9375 10.960938 282.730469 10.058594 C 279.261719 11.109375 275.589844 11.265625 271.867188 11.039062 C 271.523438 10.515625 271.171875 9.992188 270.832031 9.347656 C 268.378906 9.792969 265.792969 9.957031 263.15625 10.003906 C 262.59375 9.910156 262.03125 9.835938 261.472656 9.75 C 261.472656 9.738281 261.472656 9.738281 261.472656 9.734375 C 261.453125 9.738281 261.441406 9.738281 261.425781 9.738281 C 258.925781 9.367188 256.488281 9.039062 254.140625 8.894531 C 254.179688 8.808594 254.265625 8.753906 254.285156 8.652344 C 252.210938 9.535156 253.53125 7.035156 251.847656 6.371094 C 251.089844 9.746094 248.457031 6.324219 246.113281 7.703125 C 246.933594 8.148438 248.101562 8.617188 249.292969 8.96875 C 248.433594 9.054688 247.570312 9.144531 246.761719 9.335938 C 244.847656 9.238281 242.957031 9.175781 241.117188 9.1875 C 238.867188 8.089844 236.53125 8.566406 234.050781 9.332031 C 232.792969 9.332031 231.527344 9.363281 230.273438 9.4375 C 227.976562 8.289062 225.933594 8.273438 223.949219 8.636719 C 221.46875 7.335938 218.929688 8.003906 219.695312 9.691406 C 219.292969 9.789062 218.898438 9.875 218.484375 9.949219 C 215.960938 9.863281 213.542969 9.714844 211.097656 9.113281 C 209.273438 10.265625 207.257812 11.117188 205.125 11.808594 C 204.5 11.898438 203.871094 11.996094 203.25 12.085938 C 200.320312 9.15625 201.175781 10.386719 197.199219 6.800781 C 197.707031 6.324219 198.261719 6.667969 198.785156 6.367188 C 194.382812 3.734375 198.269531 9.648438 198.269531 9.648438 C 198.269531 9.648438 196.167969 8.636719 195.246094 9.667969 C 196.917969 11.359375 198.699219 11.671875 199.914062 12.203125 C 199.699219 12.355469 199.480469 12.539062 199.269531 12.675781 C 198.953125 12.722656 198.644531 12.777344 198.335938 12.832031 C 196.945312 11.875 195.929688 9.890625 193.742188 11.066406 C 194.347656 12.476562 197.195312 11.421875 196.085938 13.125 C 194.65625 11.894531 190.585938 11.464844 191.234375 13.363281 C 192.460938 13.144531 193.714844 13.195312 194.984375 13.351562 C 193.179688 13.628906 191.375 13.890625 189.585938 14.1875 C 180.296875 14.15625 170.90625 14.878906 161.609375 15.652344 C 161.542969 15.601562 161.488281 15.578125 161.429688 15.53125 C 160.324219 15.601562 159.214844 15.691406 158.117188 15.785156 C 158.597656 15.425781 158.746094 14.910156 158.101562 14.078125 C 154.597656 14.003906 151.054688 13.933594 147.507812 13.867188 C 148.371094 13.539062 149.203125 13.183594 149.96875 12.738281 C 134.460938 12.273438 118.984375 14.078125 103.640625 16.183594 C 98.367188 16.03125 93.167969 16.964844 88.082031 17.984375 C 83.179688 18.476562 78.378906 18.871094 73.660156 19.179688 C 72.683594 18.347656 71.695312 17.375 70.730469 17.199219 C 71.175781 18.050781 70.984375 18.703125 70.78125 19.359375 C 70.722656 19.367188 70.679688 19.378906 70.617188 19.378906 C 69.699219 18.875 68.792969 18.921875 67.902344 19.515625 C 67.144531 19.546875 66.390625 19.589844 65.636719 19.621094 C 65.203125 19.535156 64.765625 19.472656 64.328125 19.359375 C 64.261719 19.402344 64.1875 19.4375 64.125 19.476562 C 59.503906 18.960938 53.375 19.175781 49.058594 18.714844 C 48.011719 18.601562 45.554688 17.371094 44.183594 17.179688 C 44.207031 17.808594 43.980469 18.289062 43.582031 18.585938 C 43.765625 18.949219 43.976562 19.339844 44.367188 19.878906 C 44.304688 19.875 44.253906 19.875 44.195312 19.875 C 44.113281 19.867188 44.035156 19.867188 43.964844 19.875 C 42.984375 19.84375 42.03125 19.792969 41.058594 19.757812 C 40.375 19.671875 39.6875 19.609375 39.007812 19.503906 C 39.113281 19.589844 39.210938 19.621094 39.320312 19.683594 C 38.734375 19.664062 37.558594 19.621094 37.558594 19.621094 C 37.558594 19.621094 41.777344 20.90625 43.886719 21.125 C 43.027344 21.5 42.140625 21.871094 41.242188 22.21875 C 39.367188 22.167969 37.605469 22.160156 36.035156 22.929688 C 36.085938 21.035156 33.335938 20.230469 34.8125 17.902344 C 35.550781 17.652344 38.882812 20.242188 37.863281 17.605469 C 36.527344 17.175781 35.679688 16.945312 35.023438 16.816406 C 35.070312 16.863281 35.132812 16.902344 35.171875 16.953125 C 34.515625 16.980469 33.828125 16.886719 33.152344 16.863281 C 32.664062 17.011719 32.105469 17.230469 31.210938 17.507812 C 34.394531 19.796875 33.972656 21.765625 35.054688 23.835938 C 32.472656 23.035156 31.429688 22.964844 29.882812 23.617188 C 30.4375 22.984375 30.910156 22.3125 29.804688 21.230469 C 26.996094 19.714844 29 25 27.261719 23.503906 C 28.199219 22.53125 26.605469 21.464844 25.644531 20.898438 C 24.953125 21.078125 23.984375 20.902344 23.023438 20.796875 C 23.167969 21.375 23.441406 21.738281 24.035156 21.46875 C 25.023438 23.003906 23.550781 22.070312 22.601562 22.441406 C 22.589844 22.441406 22.578125 22.433594 22.578125 22.433594 C 22.578125 22.433594 22.582031 22.445312 22.589844 22.453125 C 22.300781 22.570312 22.050781 22.804688 21.953125 23.28125 C 21.253906 22.355469 21.175781 21.59375 21.304688 20.886719 C 20.933594 20.972656 20.597656 21.109375 20.363281 21.414062 C 19.519531 19.78125 20.566406 19.847656 21.582031 19.882812 C 21.855469 19.089844 22.15625 18.308594 21.808594 17.355469 C 22.429688 17.011719 22.628906 17.554688 22.726562 18.34375 C 23.9375 18.167969 25.492188 20.242188 26.585938 19.277344 C 26.609375 19.78125 26.523438 20.121094 26.378906 20.386719 C 26.648438 20.371094 26.902344 20.296875 27.152344 19.945312 C 27.101562 18.71875 26.960938 17.488281 26.882812 16.261719 C 14.449219 13.542969 2.375 9.28125 -10.09375 14.554688 C -7.542969 16.300781 -5.46875 15.417969 -3.347656 14.738281 C -6.808594 18.777344 -18.597656 13.886719 -21.667969 20.78125 C -23.464844 18.832031 -27.398438 21.832031 -29.980469 24.359375 C -26.949219 26.476562 -24.976562 22.519531 -21.824219 25.546875 C -27.238281 24.621094 -31.753906 29.484375 -37.804688 25.863281 C -39.402344 27.082031 -41.183594 28.136719 -43.078125 29.078125 C -42.605469 29.792969 -43.382812 29.960938 -44.203125 29.628906 C -44.632812 29.828125 -45.117188 29.976562 -45.554688 30.164062 C -45.640625 31.929688 -45.558594 33.734375 -45.925781 35.425781 C -44.929688 38.636719 -41.21875 36.84375 -42.214844 38.832031 C -43.035156 39.445312 -43.183594 40.230469 -43.316406 41.023438 C -45.152344 41.160156 -52.597656 37.300781 -50.363281 41.695312 C -49.207031 40.429688 -45.097656 40.875 -42.039062 42.574219 C -43.425781 43.867188 -42.867188 45.667969 -42.949219 47.296875 C -36.238281 56.457031 -38.277344 69.503906 -33.367188 79.75 C -32.441406 79.886719 -31.511719 80.011719 -30.578125 80.128906 C -30.996094 80.332031 -31.242188 80.484375 -31.238281 80.574219 C -29.878906 80.769531 -28.539062 80.902344 -27.238281 80.804688 C -27.566406 81.773438 -29.070312 82.285156 -31.054688 82.492188 C -30.53125 85.527344 -29.261719 88.792969 -27.207031 92.0625 C -27.210938 92.089844 -27.210938 92.109375 -27.21875 92.132812 C -27.175781 92.175781 -27.125 92.222656 -27.074219 92.265625 C -26.941406 92.480469 -26.8125 92.691406 -26.671875 92.902344 C -25.804688 94.21875 -24.480469 95.5625 -23.097656 96.84375 C -21.957031 98.40625 -20.601562 99.921875 -18.90625 101.378906 C -20.535156 103.003906 -20.097656 105.351562 -19.0625 107.90625 C -17.15625 106.371094 -19.296875 103.429688 -17.847656 101.746094 C -17.648438 102.359375 -17.394531 102.867188 -17.109375 103.324219 C -17.203125 103.445312 -17.320312 103.546875 -17.546875 103.613281 C -17.164062 103.785156 -16.820312 103.972656 -16.488281 104.183594 C -15.867188 104.929688 -15.160156 105.507812 -14.4375 106.117188 C -14.179688 106.46875 -13.941406 106.832031 -13.726562 107.210938 C -13.246094 108.542969 -12.832031 109.867188 -12.386719 111.101562 C -12.636719 111.273438 -12.886719 111.492188 -13.128906 111.746094 C -13.171875 110.265625 -15.050781 108.566406 -16.445312 108.207031 C -16.933594 109.414062 -15.632812 111.234375 -15.691406 112.582031 C -15.742188 112.589844 -15.816406 112.5625 -15.859375 112.578125 C -16.894531 112.207031 -17.953125 111.40625 -19.007812 110.578125 C -18.542969 110.390625 -18.480469 109.808594 -19.246094 108.8125 C -20.464844 111.046875 -22.105469 105.691406 -23.335938 107.375 C -22.949219 108.519531 -22.167969 109.382812 -21.363281 109.941406 C -20.691406 111.492188 -18.707031 111.816406 -18.734375 114.003906 C -18.0625 114.183594 -17.40625 113.941406 -16.757812 113.691406 C -16.863281 114.175781 -16.828125 114.742188 -16.664062 115.296875 C -16.808594 115.226562 -16.957031 115.1875 -17.109375 115.167969 C -15.304688 116.921875 -15.761719 117.886719 -16.132812 118.886719 C -16.304688 118.925781 -16.496094 118.941406 -16.675781 118.984375 C -16.539062 119.164062 -16.421875 119.304688 -16.300781 119.453125 C -16.320312 119.515625 -16.34375 119.566406 -16.351562 119.632812 C -18.390625 118.214844 -17.222656 115.074219 -19.15625 115.65625 C -17.019531 119.40625 -20.558594 121.175781 -18.160156 125.019531 C -16.324219 124.050781 -18.34375 121.75 -17.347656 120.496094 C -15.894531 121.875 -14.261719 126.699219 -12.984375 124.398438 C -14.136719 122.304688 -15.117188 123.457031 -16.296875 120.855469 C -15.578125 121.207031 -15.109375 121.113281 -14.839844 120.761719 C -13.992188 121.148438 -13.488281 120.640625 -12.667969 120.996094 C -12.378906 121.289062 -12.03125 121.5625 -11.628906 121.828125 C -11.601562 121.851562 -11.589844 121.875 -11.566406 121.898438 C -12.410156 122.289062 -13.324219 121.308594 -14.167969 121.578125 C -12.914062 124.054688 -12.09375 124.785156 -11.421875 124.988281 C -11.027344 125.226562 -10.632812 125.46875 -10.25 125.695312 C -10.257812 125.757812 -10.25 125.808594 -10.269531 125.863281 C -10.191406 125.859375 -10.136719 125.820312 -10.074219 125.804688 C -9.527344 126.136719 -8.980469 126.488281 -8.425781 126.933594 C -9.953125 128.292969 -13.820312 123.804688 -13.359375 127.28125 C -11.019531 127.402344 -9.101562 129.28125 -7.417969 130.191406 C -7.503906 130.796875 -7.542969 131.414062 -7.429688 132.089844 C -6.621094 132.761719 -5.890625 131.984375 -5.148438 131.269531 C -4.003906 134.476562 -4.339844 135.644531 -4.324219 137.0625 C -5.375 136.109375 -5.710938 134.03125 -6.402344 132.449219 C -8.574219 133.636719 -5.195312 136.75 -6.109375 138.394531 C -5.460938 138.46875 -4.804688 138.5 -4.152344 138.53125 C -3.878906 139.707031 -3.207031 141.316406 -1.625 143.996094 C -1.355469 140.136719 3.132812 145.019531 3.132812 145.019531 C 3.132812 145.019531 7.621094 141.035156 12.976562 141.726562 C 13.117188 141.523438 13.203125 141.3125 13.308594 141.101562 C 14.65625 141.144531 16.414062 141.679688 17.605469 141.617188 C 16.085938 142.671875 14.925781 143.84375 16.863281 146.078125 C 19.597656 144.136719 25.394531 148.546875 26.285156 144.476562 C 23.523438 145.320312 20.730469 145.355469 17.773438 141.597656 C 18.398438 141.53125 18.84375 141.273438 18.878906 140.578125 C 17.347656 141.261719 15.738281 139.945312 14.128906 138.730469 C 14.449219 137.195312 14.609375 135.621094 15.25 134.195312 C 16.191406 134.308594 16.914062 133.769531 16.460938 132.75 C 16.378906 132.789062 16.292969 132.765625 16.207031 132.761719 C 16.386719 132.566406 16.539062 132.363281 16.757812 132.175781 C 19.765625 132.59375 22.886719 135.300781 25.851562 134.6875 C 23.042969 130.988281 20.519531 133.71875 17.769531 131.320312 C 18.566406 128.511719 18.066406 127.933594 20.636719 125.09375 C 21.800781 127.375 22.875 127.539062 23.929688 127.351562 C 26.113281 132.363281 29.671875 138.535156 28.050781 140.257812 C 29.714844 141.035156 31.15625 141.304688 32.480469 141.289062 C 32.699219 141.734375 32.875 142.175781 33.109375 142.632812 C 30.746094 141.863281 29.332031 144.859375 30.667969 147.226562 C 32.9375 146.816406 31.015625 144.925781 31.574219 143.914062 C 37.261719 147.753906 42.679688 144.527344 48.226562 143.277344 C 49.441406 145.367188 46.527344 145.890625 47.394531 147.851562 C 48.6875 148.75 61.234375 143.839844 55.222656 141.679688 C 65.488281 143 81.460938 135.652344 91.617188 144.398438 C 98.246094 138.390625 113.632812 145.070312 120.703125 139.796875 C 120.429688 140.152344 120.1875 141.167969 120.464844 141.25 C 124.511719 142.496094 132 137.335938 138.914062 140.316406 C 139.207031 140.445312 140.421875 140.152344 140.570312 140.113281 C 147.554688 138.703125 154.097656 138.074219 160.957031 140.070312 C 161.484375 136.695312 172.804688 139.367188 173.359375 140.019531 C 173.910156 138.960938 184.617188 138.722656 186.75 141.226562 C 188.800781 140.382812 195.351562 140.945312 202.875 141.074219 C 203.707031 141.085938 204.652344 141.066406 205.652344 141.046875 C 205.859375 141.304688 206.066406 141.550781 206.25 141.84375 C 208.464844 141.800781 210.5 141.867188 212.589844 141.820312 C 214.628906 142.363281 216.203125 143.242188 216.574219 144.808594 C 223.289062 144.777344 227.183594 144.5 233.578125 144.71875 C 233.941406 143.625 231.441406 141.75 232.320312 140.804688 C 236.582031 139.628906 241.023438 138.746094 245.554688 138.0625 C 247.898438 139.050781 250.523438 140.148438 250.816406 138.625 C 250.03125 138.539062 248.542969 138.175781 247.054688 137.804688 C 254.597656 136.746094 262.359375 136.3125 269.878906 136.363281 C 270.164062 137.792969 271.027344 139.152344 272.460938 139.636719 C 271.597656 138.417969 271.257812 137.375 271.140625 136.390625 C 278.238281 136.488281 285.128906 137.03125 291.4375 137.941406 C 301.140625 138.195312 313.546875 140.261719 323.894531 140.058594 C 323.242188 137.71875 320.386719 138.324219 321.539062 136.996094 C 323.351562 135.066406 325.585938 138.878906 327.398438 136.996094 C 327.992188 136.386719 327.339844 135.410156 328.320312 134.925781 C 331.667969 135.398438 334.886719 135.628906 338.011719 135.703125 C 339.566406 137.191406 342.878906 138.011719 342.4375 135.832031 C 342.203125 135.867188 341.953125 135.820312 341.703125 135.730469 C 347.746094 135.667969 353.511719 135.15625 359.324219 134.953125 C 360.199219 135.074219 361.140625 135.121094 362.035156 135.1875 C 361.765625 135.121094 361.527344 135.019531 361.292969 134.898438 C 361.847656 134.882812 362.414062 134.882812 362.972656 134.878906 C 363.082031 135.015625 363.167969 135.144531 363.296875 135.300781 C 364.988281 135.488281 366.132812 135.867188 365.503906 137.054688 C 366.796875 136.03125 367.824219 136.328125 370.53125 138.792969 C 371.285156 138.183594 371.167969 137.246094 370.636719 136.1875 C 369.003906 136.585938 367.878906 135.617188 367.035156 134.941406 C 371.089844 135.089844 375.226562 135.53125 379.546875 136.554688 C 381.5625 135.394531 382.960938 133.617188 383.820312 131.472656 C 384.347656 132.355469 384.839844 132.984375 385.382812 133.003906 C 384.886719 132.101562 384.445312 131.320312 384.121094 130.679688 C 384.234375 130.304688 384.351562 129.921875 384.4375 129.519531 C 384.722656 129.699219 385.074219 129.953125 385.535156 130.324219 Z M -14.613281 118.691406 C -14.703125 118.1875 -14.886719 117.648438 -15.113281 117.144531 C -14.984375 117.207031 -14.886719 117.292969 -14.757812 117.324219 C -16.03125 115.722656 -16.097656 114.539062 -14.953125 113.78125 C -14.554688 114.304688 -14.269531 114.128906 -14.417969 113.617188 C -14.296875 113.683594 -14.175781 113.734375 -14.070312 113.824219 C -14.171875 115.371094 -14.457031 117.066406 -14.023438 118.664062 C -14.21875 118.664062 -14.414062 118.675781 -14.613281 118.691406 Z M -10.796875 119.808594 C -11.402344 119.335938 -11.992188 119.054688 -12.585938 118.882812 C -12.695312 118.628906 -12.773438 118.332031 -12.808594 117.851562 C -12.132812 117.480469 -11.363281 118.933594 -10.621094 119.800781 C -10.617188 119.820312 -10.617188 119.828125 -10.605469 119.855469 C -10.671875 119.839844 -10.734375 119.816406 -10.796875 119.808594 Z M -10.363281 26.980469 C -11.851562 22.492188 -13.210938 25.789062 -15.28125 24.796875 C -16.515625 25.410156 -17.878906 25.691406 -19.34375 24.929688 C -16.882812 21.890625 -13.84375 22.246094 -10.921875 22.042969 C -11.535156 22.25 -12.257812 22.804688 -13.0625 23.390625 C -8.667969 22.378906 -4.332031 21.296875 0.265625 22.042969 C -1.25 24.359375 -7.5625 22.671875 -10.363281 26.980469 Z M 0.339844 141.042969 C -0.40625 139.867188 -1.15625 138.714844 -1.835938 139.078125 C -1.917969 138.914062 -1.945312 138.765625 -2.003906 138.605469 C -1.09375 138.65625 -0.191406 138.742188 0.730469 138.941406 C 0.71875 139.675781 0.632812 140.394531 0.339844 141.042969 Z M 8.652344 139.039062 C 8.414062 138.304688 8.316406 137.613281 8.28125 136.941406 C 8.367188 136.976562 8.4375 136.972656 8.519531 137.007812 C 9.019531 136.324219 9.300781 135.453125 9.515625 134.554688 C 9.613281 134.398438 9.691406 134.242188 9.78125 134.089844 C 10.421875 136.089844 9.078125 137.40625 8.652344 139.039062 Z M 7.667969 15.375 C 7.058594 12.421875 11.289062 14.589844 13.148438 17.269531 C 11.601562 18.328125 9.386719 15.328125 7.667969 15.375 Z M 44.601562 19.878906 C 44.796875 19.304688 46.230469 19.535156 47.609375 19.921875 C 46.601562 19.910156 45.597656 19.894531 44.601562 19.878906 Z M 279.542969 14.425781 C 279.410156 14.402344 279.28125 14.382812 279.148438 14.351562 C 277.765625 13.769531 276.570312 13.527344 276.082031 14.414062 C 276.046875 14.414062 276.015625 14.421875 275.980469 14.425781 C 275.945312 14.417969 275.910156 14.402344 275.871094 14.390625 C 275.628906 13.355469 276.097656 12.496094 276.976562 11.742188 C 280.375 14.679688 280.046875 12.675781 283.367188 12.875 C 283.386719 12.902344 283.386719 12.910156 283.394531 12.925781 C 282.09375 13.542969 280.808594 14.105469 279.542969 14.425781 Z M 369.921875 83.460938 C 366.484375 80.566406 363.207031 81.070312 359.820312 79.390625 C 359.75 79.292969 359.566406 79.164062 359.324219 79.015625 C 360.496094 78.78125 361.625 78.476562 362.695312 78.085938 C 365.398438 78.480469 368.800781 79.390625 371.789062 79.800781 C 371.070312 80.992188 370.183594 82.121094 369.921875 83.460938 Z M 355.03125 135.613281 C 354.128906 137.304688 352.964844 134.921875 352.007812 135.738281 C 352.253906 136.140625 352.5625 136.566406 352.832031 136.980469 C 352.605469 137.046875 352.382812 137.117188 352.160156 137.191406 C 352.472656 137.589844 352.839844 137.949219 353.226562 138.28125 C 353.203125 138.328125 353.230469 138.394531 353.191406 138.433594 C 352.886719 138.015625 352.179688 137.925781 352.710938 138.851562 C 353.074219 138.996094 353.515625 138.960938 353.9375 138.832031 C 356.824219 140.804688 360.332031 140.699219 358.335938 137.890625 C 359.121094 138.792969 359.859375 139.007812 360.585938 138.859375 C 358.808594 136.941406 357.09375 136.394531 355.425781 136.476562 C 355.355469 136.195312 355.242188 135.90625 355.03125 135.613281 Z M 366.511719 142.707031 C 366.246094 145.09375 371.882812 146.96875 371.207031 143.765625 C 369.753906 145.363281 367.988281 141.566406 366.511719 142.707031 Z M 193.019531 8.582031 C 191.628906 7.3125 187.628906 6.90625 188.222656 8.847656 C 189.824219 8.914062 191.542969 10.46875 193.019531 8.582031 Z M 179.59375 1.535156 C 176.683594 2.578125 173.835938 0.832031 170.972656 1.8125 C 173.914062 3.53125 177.023438 3.992188 180.140625 4.078125 C 179.355469 3.222656 181.019531 2.421875 179.59375 1.535156 Z M 178.332031 0.457031 C 178.390625 0.34375 178.34375 0.246094 178.34375 0.144531 C 177.585938 0.015625 176.816406 -0.0390625 176.03125 0.0273438 C 176.039062 0.15625 176.078125 0.222656 176.105469 0.332031 C 176.9375 0.324219 177.835938 0.464844 178.332031 0.457031 Z M 323.566406 3.144531 C 322.289062 4.476562 318.148438 2.523438 318.679688 5.441406 C 319.917969 3.660156 324.078125 5.863281 323.566406 3.144531 Z M 189.683594 6.441406 C 191.078125 6.019531 192.527344 6.46875 193.902344 5.640625 C 191.246094 4.992188 191.820312 2.367188 189.546875 3.425781 C 191.054688 4.503906 186.90625 5.320312 189.683594 6.441406 Z M 155.355469 9.066406 C 153.945312 7.9375 150.144531 7.492188 150.050781 9.535156 C 151.921875 8.09375 153.429688 11.164062 155.355469 9.066406 Z M 118.097656 5.167969 C 119.929688 4.941406 121.550781 4.945312 123.25 4.589844 C 122.011719 3.710938 118.519531 2.941406 118.097656 5.167969 Z M 149.324219 7.550781 C 148.332031 6.9375 143.316406 8.082031 145.164062 8.015625 C 146.183594 8.503906 149.460938 9.9375 149.324219 7.550781 Z M 122.941406 6.570312 C 115.460938 3.964844 106.171875 6.507812 97.535156 7.246094 C 105.542969 8.988281 115.101562 6.261719 122.941406 6.570312 Z M 103.453125 10.386719 C 108.027344 9.425781 114.359375 11.277344 117.910156 7.945312 C 113.535156 9.113281 105.195312 6.941406 103.453125 10.386719 Z M 120.246094 8.28125 C 120.007812 10.660156 119.71875 10.058594 117.726562 10.726562 C 118.707031 11.976562 120.019531 11.859375 121.683594 10.355469 C 121.546875 9.816406 120.996094 9.300781 121.605469 8.699219 C 123.050781 8.792969 124.292969 9.519531 125.835938 8.148438 C 125.386719 7.417969 124.765625 4.433594 124.730469 6.617188 C 124.800781 8.71875 122.035156 5.769531 120.246094 8.28125 "/>
</g>
</svg>
