<?xml version="1.0" encoding="UTF-8"?>
<svg xmlns="http://www.w3.org/2000/svg" xmlns:xlink="http://www.w3.org/1999/xlink" width="1440pt" height="809.999993pt" viewBox="0 0 1440 809.999993" version="1.2">
<defs>
<clipPath id="clip1">
  <path d="M 0 27.394531 L 1440 27.394531 L 1440 776 L 0 776 Z M 0 27.394531 "/>
</clipPath>
</defs>
<g id="surface1">
<g clip-path="url(#clip1)" clip-rule="nonzero">
<path style=" stroke:none;fill-rule:nonzero;fill:rgb(92.939758%,92.158508%,90.19928%);fill-opacity:1;" d="M 627.988281 742.203125 C 638.074219 749.910156 645.671875 747.925781 644.503906 764.066406 C 656.148438 760.117188 645.523438 747.902344 654.460938 742.621094 C 656.023438 745.003906 657.613281 747.070312 659.300781 744.4375 C 650.472656 733.976562 629.054688 738.320312 627.988281 742.203125 Z M 1014.195312 731.492188 C 1043.566406 732.746094 1089.238281 756.027344 1108.921875 749.804688 C 1079.261719 745.253906 1033.210938 712.597656 1014.195312 731.492188 Z M 106.371094 745.398438 C 119.566406 745.292969 149.394531 760.097656 144.824219 736.714844 C 133.78125 740.910156 107.625 731.285156 106.371094 745.398438 Z M -346.984375 755.964844 C -340.160156 752.078125 -332.601562 765.859375 -326.027344 757.089844 C -322.414062 750.179688 -322.769531 741.890625 -327.113281 732.265625 C -336.925781 738.070312 -345.066406 741.367188 -346.984375 755.964844 Z M 1246.84375 762.5 C 1273.332031 772.480469 1327.503906 782.523438 1334.058594 769.515625 C 1305.230469 768.199219 1274.816406 748.738281 1246.84375 762.5 Z M -437.121094 563.523438 C -433.09375 574.003906 -433.96875 582.773438 -422.40625 595.882812 C -416.394531 596.21875 -410.570312 590.6875 -403.765625 605.425781 C -397.292969 601.625 -395.039062 596.386719 -399.402344 588.804688 C -405.582031 599.914062 -412.867188 579.453125 -413.179688 574.964844 C -418.878906 577.992188 -414.242188 584.628906 -414.972656 589.433594 C -425.765625 579.535156 -432.738281 565.609375 -437.121094 563.523438 Z M -429.585938 494.390625 C -426.140625 492.054688 -424.203125 494.496094 -422.800781 497.960938 C -423.492188 499.152344 -424.074219 500.382812 -424.953125 501.53125 C -423.429688 502.597656 -421.90625 504.101562 -420.339844 505.707031 C -419.566406 507.964844 -418.753906 509.238281 -417.542969 508.734375 C -410.820312 516.503906 -403.972656 525.917969 -397.816406 523.058594 C -411.550781 506.085938 -410.425781 478.691406 -421.382812 472.71875 C -418.960938 480.109375 -418.773438 486.6875 -420.527344 492.617188 C -423.910156 482.136719 -428.398438 471.050781 -430.945312 470.609375 C -428.292969 479.339844 -435.222656 484.621094 -429.585938 494.390625 Z M -413.054688 626.390625 C -405.957031 634.96875 -403.136719 642.007812 -406.8125 646.746094 C -412.40625 640.378906 -413.910156 618.308594 -423.304688 628.832031 C -412.011719 633.84375 -410.070312 658.9375 -395.582031 662.824219 C -405.039062 651.253906 -395.121094 630.917969 -413.054688 626.390625 Z M -360.117188 696.457031 C -353.289062 696.1875 -341.078125 701.53125 -355.105469 692.09375 C -343.0625 678.503906 -339.574219 694.976562 -330.746094 709.675781 C -319.203125 701.617188 -343.125 686.039062 -347.839844 679.421875 C -352.039062 683.472656 -356.296875 685.289062 -360.699219 684.078125 C -346.609375 700.070312 -367.921875 685.164062 -360.117188 696.457031 Z M -341.976562 718.257812 C -348.863281 715.605469 -355.230469 723.558594 -361.679688 729.09375 C -350.722656 742.476562 -332.457031 737.191406 -341.976562 718.257812 Z M 1711.367188 583.398438 C 1707.964844 578.222656 1710.699219 575.109375 1705.441406 569.265625 C 1698.15625 572.960938 1685.484375 577.96875 1682.894531 582.3125 C 1692.308594 581.125 1702.226562 588.871094 1711.367188 583.398438 Z M 1696.945312 602.378906 C 1703.625 598.765625 1710.535156 598.390625 1717.359375 597.660156 C 1711.054688 581.414062 1693.226562 591.8125 1696.945312 602.378906 Z M 1671.644531 566.257812 C 1681.039062 567.21875 1693.605469 567.070312 1688.96875 551.308594 C 1684.816406 560.160156 1666.84375 550.871094 1671.644531 566.257812 Z M -177.941406 707.378906 C -169.78125 726.984375 -148.90625 728.882812 -150.972656 716.605469 C -159.738281 718.359375 -169.632812 696.582031 -177.941406 707.378906 Z M 1477.382812 731.804688 C 1479.742188 732.222656 1479.011719 726.085938 1477.070312 721.847656 C 1475.984375 721.699219 1474.878906 721.679688 1473.773438 721.660156 C 1472.625 719.132812 1471.265625 716.730469 1469.785156 714.8125 C 1468.617188 717.253906 1467.007812 719.550781 1465.566406 721.847656 C 1453.417969 723.453125 1442.125 729.488281 1435.507812 732.371094 C 1439.640625 737.652344 1440.707031 741.933594 1441.769531 746.253906 C 1450.582031 746.234375 1458.886719 739.136719 1468.304688 748.824219 C 1477.507812 745.316406 1466.988281 735.335938 1473.648438 731.074219 C 1474.335938 733.082031 1474.941406 734.6875 1475.503906 736.023438 C 1469.179688 743.207031 1482.832031 760.140625 1489.449219 749.785156 C 1484.855469 743.539062 1482.558594 740.410156 1477.96875 734.164062 C 1477.78125 733.394531 1477.59375 732.621094 1477.382812 731.804688 Z M 1723.621094 617.972656 C 1719.699219 621.398438 1717.714844 623.109375 1713.769531 626.535156 C 1722.558594 643.65625 1736.355469 631.816406 1723.621094 617.972656 Z M 1534.914062 739.511719 C 1536.4375 741.953125 1537.773438 744.3125 1535.269531 745.398438 C 1537.605469 736.460938 1513.203125 734.144531 1516.984375 736.253906 C 1526.835938 744.230469 1537.023438 759.722656 1545.601562 748.988281 C 1541.992188 744.75 1538.191406 737.695312 1534.914062 739.511719 Z M 1678.886719 683.574219 C 1677.21875 680.632812 1675.589844 678.316406 1673.960938 676.207031 C 1678.53125 650.628906 1670.851562 618.308594 1652.210938 589.558594 C 1661.664062 581.917969 1663.335938 605.03125 1668.34375 601.269531 C 1656.070312 576.820312 1681.539062 565.714844 1654.441406 536.066406 C 1660.957031 527.296875 1656.007812 514.476562 1665.882812 506.941406 C 1675.609375 510.34375 1684.960938 508.066406 1695.398438 526.503906 C 1705.253906 518.757812 1674.273438 475.101562 1698.800781 491.488281 C 1696.296875 494.621094 1691.246094 496.8125 1694.148438 501.910156 C 1704.125 505.3125 1700.679688 496.9375 1706.546875 491.21875 C 1698.175781 479.296875 1690.597656 483.097656 1682.3125 473.492188 C 1674.210938 481.65625 1682.8125 495.875 1676.109375 504.496094 C 1658.554688 505.667969 1648.847656 485.621094 1638.496094 464.367188 C 1640.351562 459.105469 1640.644531 453.261719 1636.324219 445.742188 C 1635.824219 449.984375 1634.800781 452.507812 1633.566406 454.410156 C 1628.976562 445.367188 1624.050781 436.722656 1618.101562 430.0625 C 1627.179688 430.667969 1634.964844 429.855469 1639.832031 426.179688 C 1619.726562 417.433594 1608.9375 405.675781 1586.097656 400.289062 C 1602.695312 398.597656 1620.167969 405.007812 1635.71875 400.289062 C 1620.585938 386.324219 1634.757812 375.820312 1632.191406 364.085938 C 1644.902344 364.609375 1655.402344 357.15625 1660.558594 343.480469 C 1673.753906 358.46875 1686.757812 339.429688 1692.832031 350.515625 C 1682.332031 319.03125 1650.332031 342.539062 1628.765625 328.90625 C 1628.496094 328.820312 1626.886719 327.714844 1626.886719 327.714844 C 1626.886719 327.714844 1628.160156 328.488281 1628.765625 328.90625 C 1630.4375 329.324219 1622.671875 320.867188 1620 320.199219 C 1629.976562 313.058594 1667.40625 310.90625 1677.96875 320.136719 C 1691.953125 306.378906 1721.261719 318.132812 1721.554688 292.074219 C 1708.363281 282.949219 1696.757812 294.101562 1683.585938 281.84375 C 1692.75 284.996094 1694.855469 268.230469 1699.261719 272.03125 C 1702.996094 277.585938 1697.363281 282.386719 1706.878906 282.867188 C 1711.097656 275.332031 1716.128906 280.757812 1720.617188 274.953125 C 1711.597656 259.839844 1720.804688 245.746094 1712.433594 231.253906 C 1696.734375 233.988281 1701.222656 237.683594 1691.285156 249.0625 C 1682.394531 238.582031 1673.898438 240.546875 1665.277344 237.957031 C 1668.742188 230.671875 1663.167969 223.089844 1653.316406 215.304688 C 1639.996094 222.339844 1638.847656 217.578125 1634.527344 206.535156 C 1629.539062 209.664062 1632.023438 213.171875 1627.578125 216.285156 C 1622.589844 211.167969 1605.886719 216.011719 1608.664062 207.265625 C 1618.914062 210.9375 1629.121094 197.535156 1639.289062 198.683594 C 1622.859375 187.679688 1620.585938 212.128906 1603.925781 198.933594 C 1607.871094 196.761719 1611.835938 199.332031 1615.761719 197.578125 C 1595.222656 187.261719 1588.957031 185.113281 1558.542969 169.222656 C 1557.5 174.964844 1535.582031 182.542969 1526.355469 176.46875 C 1530.507812 174.757812 1534.644531 176.363281 1538.816406 171.539062 C 1530.636719 162.230469 1522.242188 176.03125 1513.871094 168.890625 C 1496.691406 151.914062 1494.8125 141.308594 1481.285156 119.34375 C 1472.394531 123.707031 1455.464844 126.402344 1455.027344 110.492188 C 1453.148438 122.664062 1441.605469 121.179688 1438.535156 130.160156 C 1441.75 129.34375 1457.550781 129.679688 1451.894531 134.625 C 1435.277344 143.230469 1418.664062 131.328125 1401.609375 127.464844 C 1400.941406 126.484375 1400.273438 125.441406 1399.644531 124.4375 C 1407.558594 123.707031 1419.371094 129.09375 1416.847656 121.660156 C 1410.5625 117.589844 1404.113281 121.953125 1397.703125 121.285156 C 1396.222656 118.738281 1394.804688 116.085938 1393.488281 113.433594 C 1394.742188 107.171875 1395.554688 100.742188 1406.222656 96.355469 C 1417.910156 99.675781 1429.726562 108.109375 1447.050781 106.796875 C 1442.5 101.324219 1439.996094 96.167969 1441.9375 91.824219 C 1452.710938 95.9375 1463.398438 94.726562 1474.0625 88.277344 C 1453.667969 74.222656 1424.945312 110.554688 1412.046875 78.398438 C 1398.644531 82.679688 1386.453125 81.65625 1378.875 87.984375 C 1371.277344 89.738281 1363.617188 89.738281 1355.640625 86.144531 C 1362.300781 87.167969 1368.898438 87.878906 1375.515625 86.980469 C 1363.304688 78.878906 1335.726562 73.742188 1332.574219 83.703125 C 1338.859375 83.558594 1345.078125 84.539062 1351.300781 85.539062 C 1352.949219 89.402344 1349.023438 90.886719 1345.351562 91.53125 C 1328.777344 86.8125 1312.554688 83.347656 1312.035156 95.707031 C 1316.417969 90.886719 1334.746094 95.542969 1329.464844 100.113281 C 1325.375 101.929688 1321.242188 102.890625 1317.003906 103.433594 C 1316.816406 101.761719 1316.460938 100.09375 1315.5625 98.296875 C 1313.765625 99.300781 1312.703125 100.386719 1311.886719 101.492188 C 1306.210938 99.152344 1300.492188 96.566406 1294.792969 94.496094 C 1299.34375 81.929688 1293.519531 67.167969 1304.351562 55.453125 C 1317.585938 60.863281 1330.882812 67.523438 1343.511719 65.933594 C 1323.660156 42.800781 1316.878906 60.257812 1308.214844 39.441406 C 1295.105469 52.761719 1277.820312 58.503906 1261.390625 60.988281 C 1261.351562 60.945312 1261.328125 60.902344 1261.246094 60.800781 C 1261.265625 60.945312 1261.203125 60.988281 1261.164062 61.050781 C 1258.242188 61.488281 1255.378906 61.800781 1252.582031 62.09375 C 1248.867188 61.53125 1245.738281 61.40625 1243.210938 61.863281 C 1242.773438 61.65625 1242.8125 61.71875 1243.148438 61.863281 C 1242.167969 62.03125 1241.3125 62.300781 1240.582031 62.699219 C 1236.09375 62.804688 1231.769531 62.78125 1227.992188 62.636719 C 1231.960938 64.347656 1248.304688 65.433594 1244.148438 71.363281 C 1232.835938 70.652344 1218.703125 69.921875 1222.316406 86.5 C 1213.359375 79.964844 1204.214844 79.128906 1195.011719 80.90625 C 1194.40625 80.050781 1193.863281 79.402344 1193.214844 78.210938 C 1190.898438 80.152344 1188.519531 81.78125 1186.160156 83.328125 C 1182.195312 84.769531 1178.207031 86.375 1174.261719 88.253906 C 1171.609375 85.769531 1167.875 82.574219 1161.800781 78.046875 C 1144.347656 83.328125 1125.894531 84.121094 1107.167969 82.972656 C 1105.4375 80.339844 1103.664062 77.710938 1101.953125 74.453125 C 1089.613281 76.707031 1076.609375 77.523438 1063.355469 77.753906 C 1060.515625 77.292969 1057.695312 76.917969 1054.878906 76.480469 C 1054.878906 76.417969 1054.878906 76.417969 1054.878906 76.394531 C 1054.773438 76.417969 1054.734375 76.417969 1054.648438 76.417969 C 1042.0625 74.558594 1029.808594 72.910156 1017.992188 72.179688 C 1018.203125 71.738281 1018.640625 71.46875 1018.722656 70.96875 C 1008.285156 75.394531 1014.945312 62.824219 1006.46875 59.460938 C 1002.648438 76.457031 989.414062 59.234375 977.621094 66.1875 C 981.753906 68.417969 987.621094 70.777344 993.609375 72.554688 C 989.289062 72.992188 984.949219 73.429688 980.878906 74.390625 C 971.253906 73.910156 961.757812 73.597656 952.488281 73.660156 C 941.175781 68.128906 929.421875 70.527344 916.960938 74.371094 C 910.632812 74.371094 904.265625 74.539062 897.964844 74.914062 C 886.398438 69.128906 876.128906 69.046875 866.148438 70.882812 C 853.667969 64.328125 840.890625 67.6875 844.753906 76.1875 C 842.730469 76.6875 840.746094 77.105469 838.65625 77.480469 C 825.964844 77.0625 813.796875 76.3125 801.5 73.285156 C 792.335938 79.089844 782.191406 83.367188 771.460938 86.855469 C 768.308594 87.292969 765.15625 87.796875 762.027344 88.253906 C 747.289062 73.492188 751.589844 79.695312 731.589844 61.632812 C 734.160156 59.234375 736.933594 60.964844 739.566406 59.441406 C 717.4375 46.203125 736.976562 75.976562 736.976562 75.976562 C 736.976562 75.976562 726.414062 70.882812 721.78125 76.0625 C 730.191406 84.578125 739.148438 86.167969 745.242188 88.839844 C 744.179688 89.613281 743.074219 90.53125 742.007812 91.21875 C 740.421875 91.449219 738.875 91.71875 737.3125 91.992188 C 730.316406 87.191406 725.203125 77.1875 714.203125 83.117188 C 717.25 90.21875 731.570312 84.894531 725.996094 93.472656 C 718.816406 87.273438 698.339844 85.121094 701.59375 94.683594 C 707.773438 93.578125 714.078125 93.828125 720.464844 94.621094 C 711.382812 96.023438 702.304688 97.335938 693.308594 98.820312 C 646.589844 98.671875 599.351562 102.304688 552.589844 106.210938 C 552.257812 105.9375 551.984375 105.835938 551.691406 105.585938 C 546.121094 105.9375 540.546875 106.398438 535.015625 106.878906 C 537.433594 105.0625 538.1875 102.472656 534.953125 98.277344 C 517.3125 97.902344 499.507812 97.546875 481.660156 97.210938 C 486 95.5625 490.195312 93.765625 494.035156 91.53125 C 416.027344 89.195312 338.1875 98.277344 261.011719 108.882812 C 234.5 108.109375 208.34375 112.808594 182.753906 117.945312 C 158.101562 120.429688 133.949219 122.414062 110.214844 123.957031 C 105.308594 119.78125 100.339844 114.875 95.476562 114 C 97.730469 118.277344 96.769531 121.558594 95.746094 124.875 C 95.453125 124.898438 95.226562 124.960938 94.910156 124.960938 C 90.296875 122.433594 85.746094 122.664062 81.261719 125.648438 C 77.441406 125.816406 73.660156 126.023438 69.863281 126.191406 C 67.691406 125.753906 65.476562 125.441406 63.285156 124.875 C 62.953125 125.085938 62.578125 125.253906 62.265625 125.460938 C 39.007812 122.851562 8.199219 123.9375 -13.511719 121.621094 C -18.792969 121.054688 -31.152344 114.855469 -38.039062 113.894531 C -37.914062 117.066406 -39.0625 119.46875 -41.066406 120.972656 C -40.148438 122.808594 -39.082031 124.773438 -37.121094 127.484375 C -37.433594 127.464844 -37.683594 127.464844 -37.976562 127.464844 C -38.394531 127.421875 -38.789062 127.421875 -39.144531 127.464844 C -44.070312 127.296875 -48.875 127.046875 -53.757812 126.878906 C -57.203125 126.441406 -60.648438 126.128906 -64.070312 125.585938 C -63.546875 126.023438 -63.046875 126.191406 -62.503906 126.503906 C -65.449219 126.402344 -71.355469 126.191406 -71.355469 126.191406 C -71.355469 126.191406 -50.148438 132.664062 -39.542969 133.75 C -43.863281 135.648438 -48.308594 137.507812 -52.839844 139.261719 C -62.273438 139.011719 -71.125 138.96875 -79.015625 142.851562 C -78.765625 133.3125 -92.605469 129.261719 -85.175781 117.527344 C -81.457031 116.273438 -64.695312 129.304688 -69.832031 116.042969 C -76.554688 113.875 -80.8125 112.703125 -84.109375 112.058594 C -83.878906 112.308594 -83.566406 112.496094 -83.359375 112.746094 C -86.675781 112.890625 -90.121094 112.410156 -93.523438 112.308594 C -95.988281 113.039062 -98.785156 114.144531 -103.292969 115.542969 C -87.28125 127.070312 -89.390625 136.984375 -83.964844 147.40625 C -96.949219 143.375 -102.1875 143.019531 -109.972656 146.296875 C -107.175781 143.125 -104.796875 139.742188 -110.371094 134.292969 C -124.480469 126.652344 -114.421875 153.273438 -123.144531 145.734375 C -118.449219 140.828125 -126.464844 135.460938 -131.285156 132.621094 C -134.773438 133.519531 -139.636719 132.644531 -144.480469 132.101562 C -143.75 135.023438 -142.371094 136.839844 -139.386719 135.484375 C -134.417969 143.207031 -141.828125 138.511719 -146.589844 140.390625 C -146.652344 140.390625 -146.714844 140.347656 -146.714844 140.347656 C -146.714844 140.347656 -146.691406 140.410156 -146.652344 140.453125 C -148.113281 141.035156 -149.363281 142.207031 -149.867188 144.605469 C -153.371094 139.949219 -153.769531 136.109375 -153.121094 132.558594 C -154.980469 133 -156.671875 133.6875 -157.859375 135.210938 C -162.097656 126.984375 -156.835938 127.320312 -151.722656 127.507812 C -150.34375 123.519531 -148.84375 119.574219 -150.574219 114.769531 C -147.464844 113.039062 -146.460938 115.773438 -145.960938 119.761719 C -139.867188 118.863281 -132.058594 129.304688 -126.546875 124.457031 C -126.445312 126.984375 -126.863281 128.699219 -127.59375 130.035156 C -126.234375 129.972656 -124.960938 129.59375 -123.710938 127.820312 C -123.960938 121.640625 -124.667969 115.4375 -125.066406 109.28125 C -187.605469 95.582031 -248.332031 74.121094 -311.039062 100.675781 C -298.222656 109.46875 -287.785156 105.019531 -277.117188 101.597656 C -294.527344 121.933594 -353.8125 97.316406 -369.257812 132.015625 C -378.296875 122.203125 -398.085938 137.320312 -411.070312 150.035156 C -395.832031 160.703125 -385.894531 140.785156 -370.050781 156.027344 C -397.273438 151.351562 -419.984375 175.84375 -450.417969 157.613281 C -458.457031 163.753906 -467.410156 169.054688 -476.953125 173.796875 C -474.570312 177.40625 -478.476562 178.242188 -482.609375 176.574219 C -484.78125 177.574219 -487.199219 178.328125 -489.414062 179.265625 C -489.832031 188.160156 -489.433594 197.242188 -491.273438 205.761719 C -486.261719 221.921875 -467.601562 212.902344 -472.609375 222.902344 C -476.742188 225.992188 -477.472656 229.960938 -478.140625 233.949219 C -487.390625 234.636719 -524.839844 215.199219 -513.585938 237.332031 C -507.785156 230.960938 -487.117188 233.195312 -471.734375 241.757812 C -478.707031 248.269531 -475.886719 257.332031 -476.304688 265.539062 C -442.550781 311.660156 -452.800781 377.34375 -428.105469 428.9375 C -423.449219 429.625 -418.773438 430.25 -414.078125 430.835938 C -416.183594 431.859375 -417.417969 432.632812 -417.394531 433.089844 C -410.570312 434.074219 -403.828125 434.742188 -397.273438 434.238281 C -398.921875 439.125 -406.5 441.695312 -416.476562 442.738281 C -413.847656 458.019531 -407.460938 474.472656 -397.125 490.925781 C -397.148438 491.074219 -397.148438 491.15625 -397.1875 491.28125 C -396.960938 491.488281 -396.710938 491.742188 -396.457031 491.949219 C -395.789062 493.035156 -395.144531 494.101562 -394.433594 495.164062 C -390.070312 501.78125 -383.410156 508.546875 -376.460938 515 C -370.71875 522.871094 -363.894531 530.492188 -355.378906 537.839844 C -363.558594 546.027344 -361.367188 557.84375 -356.148438 570.703125 C -346.566406 562.980469 -357.339844 548.15625 -350.054688 539.679688 C -349.050781 542.769531 -347.757812 545.335938 -346.339844 547.632812 C -346.796875 548.238281 -347.402344 548.761719 -348.53125 549.09375 C -346.609375 549.949219 -344.878906 550.890625 -343.207031 551.957031 C -340.074219 555.714844 -336.527344 558.617188 -332.894531 561.683594 C -331.601562 563.460938 -330.390625 565.296875 -329.324219 567.195312 C -326.902344 573.898438 -324.816406 580.582031 -322.582031 586.78125 C -323.835938 587.660156 -325.089844 588.765625 -326.320312 590.039062 C -326.527344 582.585938 -335.984375 574.023438 -343 572.207031 C -345.441406 578.285156 -338.90625 587.449219 -339.199219 594.234375 C -339.449219 594.277344 -339.824219 594.152344 -340.054688 594.214844 C -345.253906 592.355469 -350.574219 588.328125 -355.878906 584.152344 C -353.539062 583.210938 -353.226562 580.289062 -357.089844 575.257812 C -363.207031 586.511719 -371.472656 559.554688 -377.652344 568.03125 C -375.710938 573.792969 -371.785156 578.136719 -367.734375 580.957031 C -364.351562 588.765625 -354.375 590.394531 -354.5 601.398438 C -351.117188 602.316406 -347.820312 601.082031 -344.5625 599.832031 C -345.085938 602.273438 -344.917969 605.113281 -344.082031 607.910156 C -344.816406 607.554688 -345.566406 607.367188 -346.339844 607.261719 C -337.257812 616.09375 -339.554688 620.960938 -341.410156 625.992188 C -342.289062 626.179688 -343.25 626.261719 -344.148438 626.472656 C -343.457031 627.390625 -342.875 628.101562 -342.269531 628.832031 C -342.371094 629.144531 -342.476562 629.417969 -342.519531 629.75 C -352.769531 622.609375 -346.902344 606.785156 -356.628906 609.726562 C -345.878906 628.601562 -363.683594 637.515625 -351.621094 656.871094 C -342.394531 651.984375 -352.539062 640.398438 -347.527344 634.09375 C -340.222656 641.023438 -332.019531 665.328125 -325.589844 653.738281 C -331.371094 643.195312 -336.320312 649 -342.246094 635.910156 C -338.636719 637.664062 -336.277344 637.203125 -334.921875 635.429688 C -330.660156 637.371094 -328.113281 634.824219 -324.003906 636.597656 C -322.542969 638.082031 -320.789062 639.457031 -318.761719 640.796875 C -318.636719 640.921875 -318.574219 641.023438 -318.449219 641.148438 C -322.6875 643.113281 -327.300781 638.183594 -331.539062 639.542969 C -325.234375 652.007812 -321.101562 655.683594 -317.71875 656.703125 C -315.734375 657.914062 -313.753906 659.125 -311.832031 660.273438 C -311.875 660.589844 -311.832031 660.839844 -311.9375 661.109375 C -311.539062 661.089844 -311.269531 660.902344 -310.957031 660.816406 C -308.199219 662.488281 -305.445312 664.261719 -302.648438 666.496094 C -310.328125 673.34375 -329.785156 650.753906 -327.46875 668.25 C -315.695312 668.855469 -306.050781 678.316406 -297.597656 682.90625 C -298.011719 685.957031 -298.222656 689.066406 -297.636719 692.46875 C -293.589844 695.851562 -289.914062 691.929688 -286.175781 688.335938 C -280.414062 704.476562 -282.105469 710.363281 -282.023438 717.503906 C -287.304688 712.703125 -288.996094 702.242188 -292.480469 694.265625 C -303.398438 700.257812 -286.40625 715.9375 -291 724.207031 C -287.742188 724.582031 -284.445312 724.75 -281.167969 724.894531 C -279.789062 730.824219 -276.40625 738.925781 -268.453125 752.414062 C -267.097656 732.976562 -244.511719 757.570312 -244.511719 757.570312 C -244.511719 757.570312 -221.945312 737.507812 -194.996094 740.992188 C -194.308594 739.96875 -193.871094 738.90625 -193.328125 737.839844 C -186.5625 738.050781 -177.710938 740.742188 -171.722656 740.429688 C -179.363281 745.753906 -185.207031 751.640625 -175.457031 762.894531 C -161.703125 753.125 -132.539062 775.316406 -128.070312 754.835938 C -141.953125 759.074219 -156.003906 759.261719 -170.886719 740.347656 C -167.734375 740.011719 -165.5 738.695312 -165.3125 735.210938 C -173.015625 738.65625 -181.113281 732.015625 -189.214844 725.898438 C -187.605469 718.171875 -186.792969 710.238281 -183.578125 703.054688 C -178.839844 703.640625 -175.207031 700.925781 -177.484375 695.789062 C -177.898438 695.976562 -178.316406 695.875 -178.757812 695.851562 C -177.859375 694.871094 -177.085938 693.847656 -175.980469 692.886719 C -160.867188 694.996094 -145.167969 708.632812 -130.242188 705.539062 C -144.375 686.917969 -157.066406 700.675781 -170.90625 688.585938 C -166.898438 674.453125 -169.402344 671.527344 -156.484375 657.246094 C -150.617188 668.730469 -145.210938 669.546875 -139.90625 668.605469 C -128.929688 693.847656 -111.039062 724.917969 -119.179688 733.582031 C -110.808594 737.507812 -103.566406 738.863281 -96.90625 738.78125 C -95.800781 741.035156 -94.921875 743.25 -93.734375 745.542969 C -105.632812 741.683594 -112.75 756.757812 -106.027344 768.679688 C -94.609375 766.613281 -104.273438 757.089844 -101.457031 751.996094 C -72.859375 771.332031 -45.597656 755.085938 -17.707031 748.800781 C -11.589844 759.324219 -26.246094 761.957031 -21.882812 771.832031 C -15.390625 776.339844 47.714844 751.621094 17.488281 740.742188 C 69.109375 747.402344 149.457031 710.40625 200.539062 754.4375 C 233.875 724.1875 311.277344 757.820312 346.828125 731.265625 C 345.472656 733.058594 344.238281 738.175781 345.636719 738.59375 C 365.992188 744.855469 403.648438 718.882812 438.425781 733.894531 C 439.910156 734.542969 446.023438 733.058594 446.753906 732.871094 C 481.886719 725.773438 514.808594 722.597656 549.3125 732.640625 C 551.964844 715.644531 608.890625 729.113281 611.6875 732.390625 C 614.464844 727.066406 668.320312 725.855469 679.050781 738.46875 C 689.363281 734.226562 722.300781 737.046875 760.148438 737.695312 C 764.324219 737.757812 769.082031 737.652344 774.113281 737.570312 C 775.15625 738.863281 776.199219 740.09375 777.121094 741.578125 C 788.265625 741.367188 798.496094 741.703125 809.015625 741.453125 C 819.265625 744.1875 827.175781 748.613281 829.054688 756.507812 C 862.832031 756.339844 882.410156 754.941406 914.578125 756.046875 C 916.394531 750.535156 903.828125 741.097656 908.253906 736.335938 C 929.691406 730.429688 952.027344 725.980469 974.824219 722.535156 C 986.597656 727.503906 999.8125 733.039062 1001.273438 725.375 C 997.328125 724.9375 989.855469 723.101562 982.359375 721.242188 C 1020.308594 715.917969 1059.347656 713.726562 1097.171875 713.976562 C 1098.589844 721.179688 1102.933594 728.027344 1110.15625 730.46875 C 1105.8125 724.332031 1104.101562 719.070312 1103.515625 714.121094 C 1139.210938 714.601562 1173.863281 717.335938 1205.59375 721.929688 C 1254.398438 723.203125 1316.792969 733.601562 1368.855469 732.578125 C 1365.578125 720.804688 1351.214844 723.851562 1357 717.171875 C 1366.121094 707.460938 1377.351562 726.648438 1386.472656 717.171875 C 1389.460938 714.101562 1386.183594 709.171875 1391.109375 706.75 C 1407.953125 709.132812 1424.132812 710.28125 1439.851562 710.65625 C 1447.679688 718.152344 1464.335938 722.285156 1462.125 711.304688 C 1460.933594 711.492188 1459.679688 711.242188 1458.429688 710.800781 C 1488.824219 710.488281 1517.816406 707.898438 1547.0625 706.878906 C 1551.445312 707.484375 1556.1875 707.734375 1560.695312 708.066406 C 1559.335938 707.734375 1558.125 707.210938 1556.957031 706.605469 C 1559.753906 706.523438 1562.59375 706.523438 1565.414062 706.5 C 1565.953125 707.191406 1566.394531 707.835938 1567.039062 708.632812 C 1575.535156 709.570312 1581.296875 711.492188 1578.144531 717.460938 C 1584.636719 712.304688 1589.816406 713.808594 1603.425781 726.210938 C 1607.222656 723.140625 1606.617188 718.421875 1603.945312 713.097656 C 1595.742188 715.101562 1590.085938 710.21875 1585.847656 706.8125 C 1606.242188 707.566406 1627.035156 709.800781 1648.765625 714.9375 C 1658.910156 709.109375 1665.945312 700.152344 1670.265625 689.359375 C 1672.917969 693.808594 1675.402344 696.960938 1678.113281 697.0625 C 1675.628906 692.535156 1673.417969 688.585938 1671.769531 685.371094 C 1672.351562 683.472656 1672.9375 681.550781 1673.375 679.527344 C 1674.796875 680.421875 1676.570312 681.695312 1678.886719 683.574219 Z M -333.773438 625.011719 C -334.230469 622.464844 -335.148438 619.75 -336.296875 617.222656 C -335.652344 617.535156 -335.148438 617.953125 -334.503906 618.121094 C -340.910156 610.0625 -341.246094 604.089844 -335.484375 600.289062 C -333.480469 602.921875 -332.039062 602.023438 -332.789062 599.453125 C -332.183594 599.789062 -331.578125 600.039062 -331.039062 600.5 C -331.558594 608.285156 -333 616.828125 -330.808594 624.863281 C -331.789062 624.863281 -332.769531 624.925781 -333.773438 625.011719 Z M -314.589844 630.628906 C -317.636719 628.246094 -320.601562 626.828125 -323.585938 625.972656 C -324.128906 624.699219 -324.523438 623.195312 -324.691406 620.773438 C -321.308594 618.914062 -317.425781 626.222656 -313.691406 630.585938 C -313.667969 630.691406 -313.667969 630.730469 -313.628906 630.855469 C -313.960938 630.792969 -314.273438 630.667969 -314.589844 630.628906 Z M -312.394531 163.230469 C -319.890625 140.640625 -326.714844 157.238281 -337.132812 152.25 C -343.351562 155.339844 -350.199219 156.757812 -357.570312 152.917969 C -345.191406 137.613281 -329.910156 139.40625 -315.214844 138.386719 C -318.304688 139.429688 -321.9375 142.207031 -325.984375 145.171875 C -303.878906 140.078125 -282.066406 134.625 -258.9375 138.386719 C -266.554688 150.035156 -298.304688 141.539062 -312.394531 163.230469 Z M -258.558594 737.546875 C -262.316406 731.617188 -266.097656 725.8125 -269.519531 727.652344 C -269.914062 726.816406 -270.0625 726.085938 -270.355469 725.269531 C -265.78125 725.523438 -261.230469 725.960938 -256.597656 726.960938 C -256.660156 730.65625 -257.097656 734.269531 -258.558594 737.546875 Z M -216.746094 727.464844 C -217.957031 723.746094 -218.4375 720.28125 -218.625 716.898438 C -218.1875 717.066406 -217.832031 717.046875 -217.414062 717.234375 C -214.910156 713.789062 -213.492188 709.402344 -212.40625 704.871094 C -211.925781 704.078125 -211.53125 703.308594 -211.070312 702.535156 C -207.855469 712.597656 -214.617188 719.238281 -216.746094 727.464844 Z M -221.714844 104.8125 C -224.765625 89.945312 -203.492188 100.84375 -194.140625 114.351562 C -201.925781 119.675781 -213.054688 104.5625 -221.714844 104.8125 Z M -35.929688 127.484375 C -34.949219 124.585938 -27.75 125.753906 -20.816406 127.695312 C -25.871094 127.632812 -30.921875 127.570312 -35.929688 127.484375 Z M 1145.765625 100.03125 C 1145.097656 99.90625 1144.453125 99.800781 1143.785156 99.65625 C 1136.832031 96.730469 1130.820312 95.5 1128.359375 99.96875 C 1128.191406 99.96875 1128.023438 100.007812 1127.855469 100.03125 C 1127.667969 99.988281 1127.5 99.90625 1127.292969 99.84375 C 1126.082031 94.644531 1128.441406 90.300781 1132.867188 86.523438 C 1149.964844 101.304688 1148.3125 91.21875 1165.015625 92.222656 C 1165.097656 92.347656 1165.097656 92.390625 1165.140625 92.472656 C 1158.605469 95.582031 1152.132812 98.421875 1145.765625 100.03125 Z M 1600.355469 447.625 C 1583.070312 433.050781 1566.582031 435.574219 1549.546875 427.121094 C 1549.191406 426.640625 1548.273438 425.992188 1547.0625 425.242188 C 1552.949219 424.050781 1558.628906 422.527344 1564.011719 420.5625 C 1577.601562 422.546875 1594.71875 427.121094 1609.75 429.1875 C 1606.140625 435.179688 1601.671875 440.878906 1600.355469 447.625 Z M 1525.457031 710.195312 C 1520.929688 718.714844 1515.0625 706.730469 1510.261719 710.84375 C 1511.492188 712.871094 1513.039062 715 1514.394531 717.085938 C 1513.265625 717.421875 1512.140625 717.777344 1511.011719 718.152344 C 1512.597656 720.15625 1514.4375 721.972656 1516.378906 723.644531 C 1516.273438 723.871094 1516.398438 724.207031 1516.210938 724.414062 C 1514.664062 722.304688 1511.117188 721.847656 1513.789062 726.503906 C 1515.625 727.234375 1517.839844 727.066406 1519.96875 726.417969 C 1534.476562 736.335938 1552.113281 735.816406 1542.074219 721.679688 C 1546.039062 726.210938 1549.757812 727.296875 1553.410156 726.546875 C 1544.453125 716.898438 1535.832031 714.144531 1527.441406 714.558594 C 1527.085938 713.140625 1526.523438 711.679688 1525.457031 710.195312 Z M 1583.199219 745.921875 C 1581.863281 757.945312 1610.230469 767.382812 1606.828125 751.246094 C 1599.523438 759.304688 1590.628906 740.179688 1583.199219 745.921875 Z M 710.570312 70.613281 C 703.578125 64.203125 683.453125 62.15625 686.4375 71.949219 C 694.496094 72.28125 703.140625 80.113281 710.570312 70.613281 Z M 643.039062 35.117188 C 628.40625 40.378906 614.085938 31.589844 599.683594 36.515625 C 614.484375 45.179688 630.121094 47.5 645.796875 47.917969 C 641.851562 43.617188 650.222656 39.585938 643.039062 35.117188 Z M 636.695312 29.6875 C 636.988281 29.125 636.757812 28.625 636.757812 28.125 C 632.9375 27.476562 629.074219 27.203125 625.128906 27.539062 C 625.171875 28.1875 625.359375 28.519531 625.507812 29.0625 C 629.679688 29.019531 634.210938 29.730469 636.695312 29.6875 Z M 1367.207031 43.21875 C 1360.777344 49.941406 1339.945312 40.109375 1342.617188 54.785156 C 1348.859375 45.828125 1369.773438 56.914062 1367.207031 43.21875 Z M 693.789062 59.816406 C 700.800781 57.707031 708.109375 59.964844 715.015625 55.789062 C 701.65625 52.53125 704.539062 39.316406 693.097656 44.636719 C 700.695312 50.066406 679.820312 54.179688 693.789062 59.816406 Z M 521.132812 73.035156 C 514.035156 67.355469 494.914062 65.121094 494.453125 75.394531 C 503.867188 68.148438 511.445312 83.597656 521.132812 73.035156 Z M 333.738281 53.40625 C 342.945312 52.28125 351.109375 52.300781 359.644531 50.503906 C 353.425781 46.078125 335.847656 42.195312 333.738281 53.40625 Z M 490.800781 65.414062 C 485.8125 62.324219 460.574219 68.085938 469.863281 67.75 C 475 70.214844 491.488281 77.417969 490.800781 65.414062 Z M 358.101562 60.464844 C 320.464844 47.351562 273.746094 60.152344 230.304688 63.867188 C 270.59375 72.65625 318.667969 58.917969 358.101562 60.464844 Z M 260.074219 79.695312 C 283.078125 74.851562 314.933594 84.183594 332.78125 67.398438 C 310.777344 73.285156 268.839844 62.34375 260.074219 79.695312 Z M 344.53125 69.085938 C 343.34375 81.074219 341.882812 78.046875 331.859375 81.40625 C 336.789062 87.691406 343.40625 87.105469 351.777344 79.527344 C 351.085938 76.8125 348.308594 74.222656 351.378906 71.195312 C 358.644531 71.65625 364.886719 75.332031 372.648438 68.417969 C 370.394531 64.746094 367.265625 49.710938 367.097656 60.714844 C 367.453125 71.300781 353.527344 56.433594 344.53125 69.085938 "/>
</g>
</g>
</svg>
